<mxfile host="app.diagrams.net" agent="Mozilla/5.0 (Windows NT 10.0; Win64; x64) AppleWebKit/537.36 (KHTML, like Gecko) Chrome/128.0.0.0 Safari/537.36" version="24.7.12">
  <diagram name="‫עמוד-1‬" id="OeMiV_mDGueH6J76bLRZ">
    <mxGraphModel dx="1659" dy="2047" grid="1" gridSize="10" guides="1" tooltips="1" connect="1" arrows="1" fold="1" page="1" pageScale="1" pageWidth="827" pageHeight="1169" math="0" shadow="0">
      <root>
        <mxCell id="0" />
        <mxCell id="1" parent="0" />
        <mxCell id="EXg7UF99_Dh8yU6rniP6-5" value="" style="edgeStyle=orthogonalEdgeStyle;rounded=0;orthogonalLoop=1;jettySize=auto;html=1;" edge="1" parent="1" source="EXg7UF99_Dh8yU6rniP6-1" target="EXg7UF99_Dh8yU6rniP6-4">
          <mxGeometry relative="1" as="geometry" />
        </mxCell>
        <mxCell id="EXg7UF99_Dh8yU6rniP6-1" value="tf" style="ellipse;whiteSpace=wrap;html=1;fillColor=#f5f5f5;fontColor=#333333;strokeColor=#666666;fontSize=8;" vertex="1" parent="1">
          <mxGeometry x="600" y="-1160" width="120" height="80" as="geometry" />
        </mxCell>
        <mxCell id="EXg7UF99_Dh8yU6rniP6-9" value="" style="edgeStyle=orthogonalEdgeStyle;rounded=0;orthogonalLoop=1;jettySize=auto;html=1;" edge="1" parent="1" source="EXg7UF99_Dh8yU6rniP6-4" target="EXg7UF99_Dh8yU6rniP6-8">
          <mxGeometry relative="1" as="geometry" />
        </mxCell>
        <mxCell id="EXg7UF99_Dh8yU6rniP6-4" value="" style="shape=trapezoid;perimeter=trapezoidPerimeter;whiteSpace=wrap;html=1;fixedSize=1;fillColor=#f5f5f5;fontColor=#333333;strokeColor=#666666;" vertex="1" parent="1">
          <mxGeometry x="615" y="-1000" width="105" height="50" as="geometry" />
        </mxCell>
        <mxCell id="EXg7UF99_Dh8yU6rniP6-12" value="" style="edgeStyle=orthogonalEdgeStyle;rounded=0;orthogonalLoop=1;jettySize=auto;html=1;" edge="1" parent="1" source="EXg7UF99_Dh8yU6rniP6-8" target="EXg7UF99_Dh8yU6rniP6-11">
          <mxGeometry relative="1" as="geometry" />
        </mxCell>
        <mxCell id="EXg7UF99_Dh8yU6rniP6-8" value="" style="rhombus;whiteSpace=wrap;html=1;fillColor=#f5f5f5;fontColor=#333333;strokeColor=#666666;" vertex="1" parent="1">
          <mxGeometry x="590" y="-860" width="130" height="80" as="geometry" />
        </mxCell>
        <mxCell id="EXg7UF99_Dh8yU6rniP6-10" style="edgeStyle=orthogonalEdgeStyle;rounded=0;orthogonalLoop=1;jettySize=auto;html=1;entryX=0;entryY=0.5;entryDx=0;entryDy=0;exitX=0;exitY=0.5;exitDx=0;exitDy=0;" edge="1" parent="1" source="EXg7UF99_Dh8yU6rniP6-8" target="EXg7UF99_Dh8yU6rniP6-4">
          <mxGeometry relative="1" as="geometry">
            <mxPoint x="751.6000000000003" y="-863.3499999999999" as="sourcePoint" />
            <mxPoint x="709.9999999999999" y="-940" as="targetPoint" />
            <Array as="points">
              <mxPoint x="570" y="-820" />
              <mxPoint x="570" y="-900" />
              <mxPoint x="580" y="-900" />
              <mxPoint x="580" y="-950" />
              <mxPoint x="610" y="-950" />
              <mxPoint x="610" y="-975" />
            </Array>
          </mxGeometry>
        </mxCell>
        <mxCell id="EXg7UF99_Dh8yU6rniP6-14" style="edgeStyle=orthogonalEdgeStyle;rounded=0;orthogonalLoop=1;jettySize=auto;html=1;exitX=0.5;exitY=0;exitDx=0;exitDy=0;strokeColor=#FF6392;fontColor=#5AA9E6;fillColor=#FFE45E;entryX=1;entryY=0.5;entryDx=0;entryDy=0;" edge="1" parent="1" source="EXg7UF99_Dh8yU6rniP6-11" target="EXg7UF99_Dh8yU6rniP6-4">
          <mxGeometry relative="1" as="geometry">
            <mxPoint x="740" y="-980" as="targetPoint" />
            <Array as="points">
              <mxPoint x="740" y="-740" />
              <mxPoint x="740" y="-857" />
              <mxPoint x="760" y="-857" />
              <mxPoint x="760" y="-975" />
            </Array>
          </mxGeometry>
        </mxCell>
        <mxCell id="EXg7UF99_Dh8yU6rniP6-11" value="" style="rhombus;whiteSpace=wrap;html=1;fillColor=#dae8fc;strokeColor=#6c8ebf;verticalAlign=middle;" vertex="1" parent="1">
          <mxGeometry x="640" y="-740" width="140" height="80" as="geometry" />
        </mxCell>
        <mxCell id="EXg7UF99_Dh8yU6rniP6-16" value="" style="curved=1;endArrow=classic;html=1;rounded=0;strokeColor=#FF6392;fontColor=#5AA9E6;fillColor=#FFE45E;" edge="1" parent="1">
          <mxGeometry width="50" height="50" relative="1" as="geometry">
            <mxPoint x="250" y="-1000" as="sourcePoint" />
            <mxPoint x="300" y="-1050" as="targetPoint" />
            <Array as="points">
              <mxPoint x="300" y="-1000" />
              <mxPoint x="250" y="-1050" />
            </Array>
          </mxGeometry>
        </mxCell>
        <mxCell id="EXg7UF99_Dh8yU6rniP6-19" value="j" style="ellipse;whiteSpace=wrap;html=1;strokeColor=#FF6392;fontColor=#5AA9E6;fillColor=#FFE45E;" vertex="1" parent="1">
          <mxGeometry x="510" y="-1000" width="80" height="80" as="geometry" />
        </mxCell>
      </root>
    </mxGraphModel>
  </diagram>
</mxfile>
